<svg width="485" height="485" viewBox="0 0 485 485" fill="none" xmlns="http://www.w3.org/2000/svg">
<path opacity="0.79" d="M242.5 485C376.429 485 485 376.429 485 242.5C485 108.571 376.429 0 242.5 0C108.571 0 0 108.571 0 242.5C0 376.429 108.571 485 242.5 485Z" fill="url(#paint0_radial_271_415)"/>
<path d="M195.226 185.087V215.31" stroke="white" stroke-width="0.93" stroke-miterlimit="10"/>
<path d="M199.64 217.473L195.226 215.31" stroke="white" stroke-width="0.93" stroke-miterlimit="10"/>
<path d="M211.829 164.574L185.286 177.628" stroke="white" stroke-width="0.93" stroke-miterlimit="10"/>
<path d="M216.249 166.787L211.829 164.574" stroke="white" stroke-width="0.93" stroke-miterlimit="10"/>
<path d="M185.286 177.628V185.603" stroke="white" stroke-width="0.93" stroke-miterlimit="10"/>
<path d="M189.706 187.773L185.286 185.603" stroke="white" stroke-width="0.93" stroke-miterlimit="10"/>
<path d="M189.706 179.797L185.286 177.628" stroke="white" stroke-width="0.93" stroke-miterlimit="10"/>
<path d="M189.706 187.773L199.64 182.918" stroke="white" stroke-width="0.93" stroke-miterlimit="10"/>
<path d="M199.64 182.918V217.473" stroke="white" stroke-width="0.93" stroke-miterlimit="10"/>
<path d="M199.64 217.473L206.309 214.222" stroke="white" stroke-width="0.93" stroke-miterlimit="10"/>
<path d="M206.309 214.222V179.623" stroke="white" stroke-width="0.93" stroke-miterlimit="10"/>
<path d="M206.309 179.623L216.249 174.768" stroke="white" stroke-width="0.93" stroke-miterlimit="10"/>
<path d="M216.249 174.768V166.787" stroke="white" stroke-width="0.93" stroke-miterlimit="10"/>
<path d="M236.166 206.807L220.663 199.179" stroke="white" stroke-width="0.93" stroke-miterlimit="10"/>
<path d="M216.249 201.343L220.663 199.179" stroke="white" stroke-width="0.93" stroke-miterlimit="10"/>
<path d="M236.166 189.507L230.646 186.778" stroke="white" stroke-width="0.93" stroke-miterlimit="10"/>
<path d="M230.646 186.778L226.226 188.948" stroke="white" stroke-width="0.93" stroke-miterlimit="10"/>
<path d="M247.249 177.628L220.663 164.574" stroke="white" stroke-width="0.93" stroke-miterlimit="10"/>
<path d="M216.249 166.787L220.663 164.574" stroke="white" stroke-width="0.93" stroke-miterlimit="10"/>
<path d="M226.226 196.923V188.948" stroke="white" stroke-width="0.93" stroke-miterlimit="10"/>
<path d="M226.226 196.923L236.166 201.821" stroke="white" stroke-width="0.93" stroke-miterlimit="10"/>
<path d="M236.166 201.821V211.146" stroke="white" stroke-width="0.93" stroke-miterlimit="10"/>
<path d="M236.166 211.146L216.249 201.343" stroke="white" stroke-width="0.93" stroke-miterlimit="10"/>
<path d="M216.249 201.343V209.367" stroke="white" stroke-width="0.93" stroke-miterlimit="10"/>
<path d="M216.249 209.367L242.792 222.372" stroke="white" stroke-width="0.93" stroke-miterlimit="10"/>
<path d="M242.792 179.797L216.249 166.787" stroke="white" stroke-width="0.93" stroke-miterlimit="10"/>
<path d="M189.706 187.773V179.797L216.249 166.787V174.768" stroke="white" stroke-width="0.93" stroke-miterlimit="10"/>
<path d="M216.249 174.768L236.166 184.522" stroke="white" stroke-width="0.93" stroke-miterlimit="10"/>
<path d="M236.166 184.522V193.846" stroke="white" stroke-width="0.93" stroke-miterlimit="10"/>
<path d="M236.166 193.846L226.226 188.948" stroke="white" stroke-width="0.93" stroke-miterlimit="10"/>
<path d="M247.249 220.209V177.628" stroke="white" stroke-width="0.93" stroke-miterlimit="10"/>
<path d="M242.792 179.797L247.249 177.628" stroke="white" stroke-width="0.93" stroke-miterlimit="10"/>
<path d="M262.181 204.898L267.166 196.488" stroke="white" stroke-width="0.93" stroke-miterlimit="10"/>
<path d="M258.289 206.807L262.181 204.898" stroke="white" stroke-width="0.93" stroke-miterlimit="10"/>
<path d="M266.638 207.068L262.181 204.898" stroke="white" stroke-width="0.93" stroke-miterlimit="10"/>
<path d="M267.166 196.488V180.935" stroke="white" stroke-width="0.93" stroke-miterlimit="10"/>
<path d="M271.586 198.657L267.166 196.488" stroke="white" stroke-width="0.93" stroke-miterlimit="10"/>
<path d="M247.249 177.628V220.209L242.792 222.372V179.797" stroke="white" stroke-width="0.93" stroke-miterlimit="10"/>
<path d="M264.959 168.956L247.249 177.628" stroke="white" stroke-width="0.93" stroke-miterlimit="10"/>
<path d="M251.669 179.797L247.249 177.628" stroke="white" stroke-width="0.93" stroke-miterlimit="10"/>
<path d="M269.379 171.125L264.959 168.956" stroke="white" stroke-width="0.93" stroke-miterlimit="10"/>
<path d="M269.379 171.125L251.669 179.797" stroke="white" stroke-width="0.93" stroke-miterlimit="10"/>
<path d="M251.669 179.797V222.372" stroke="white" stroke-width="0.93" stroke-miterlimit="10"/>
<path d="M247.249 220.209L251.669 222.372L269.379 213.7" stroke="white" stroke-width="0.93" stroke-miterlimit="10"/>
<path d="M269.379 213.7L278.206 198.701" stroke="white" stroke-width="0.93" stroke-miterlimit="10"/>
<path d="M278.206 198.701V177.41" stroke="white" stroke-width="0.93" stroke-miterlimit="10"/>
<path d="M278.206 177.41L269.379 171.125" stroke="white" stroke-width="0.93" stroke-miterlimit="10"/>
<path d="M258.289 211.146L266.638 207.068" stroke="white" stroke-width="0.93" stroke-miterlimit="10"/>
<path d="M258.289 184.522V211.146" stroke="white" stroke-width="0.93" stroke-miterlimit="10"/>
<path d="M266.638 180.444L258.289 184.522" stroke="white" stroke-width="0.93" stroke-miterlimit="10"/>
<path d="M271.586 183.999L266.638 180.444" stroke="white" stroke-width="0.93" stroke-miterlimit="10"/>
<path d="M271.586 198.657V183.999" stroke="white" stroke-width="0.93" stroke-miterlimit="10"/>
<path d="M266.638 207.068L271.586 198.657" stroke="white" stroke-width="0.93" stroke-miterlimit="10"/>
<path d="M110.543 237.633H101.877V233.281H123.528V237.633H114.869V263.616H110.518L110.543 237.633Z" fill="white"/>
<path d="M132.194 263.623H127.842V241.984H130.006V239.814H132.175V237.633H134.338V235.469H136.501V233.281H140.853V235.451H143.016V237.633H145.186V239.796H147.349V241.984H149.512V263.635H145.161V254.976H132.169L132.194 263.623ZM132.194 250.631H145.186V244.135H143.016V241.984H140.853V239.814H136.501V241.984H134.338V244.147H132.175L132.194 250.631Z" fill="white"/>
<path d="M153.844 263.623V233.281H158.196V259.265H175.514V263.616L153.844 263.623Z" fill="white"/>
<path d="M184.161 263.623H179.81V241.984H181.973V239.814H184.142V237.633H186.306V235.469H188.469V233.281H192.82V235.451H194.983V237.633H197.153V239.796H199.316V241.984H201.479V263.635H197.128V254.976H184.136L184.161 263.623ZM184.161 250.631H197.153V244.135H194.983V241.984H192.82V239.814H188.469V241.984H186.306V244.147H184.142L184.161 250.631Z" fill="white"/>
<path d="M212.308 259.29H220.949V257.127H223.112V254.963H227.463V259.315H225.3V261.484H223.13V263.648H210.138V261.484H207.975V259.315H205.812V237.633H207.975V235.469H210.138V233.281H223.13V235.451H225.3V237.633H227.463V241.984H223.112V239.814H220.949V237.633H212.308V239.796H210.138V257.121H212.308V259.29Z" fill="white"/>
<path d="M236.122 250.631V263.623H231.771V233.281H236.122V246.273H249.114V233.281H253.465V263.598H249.114V250.606L236.122 250.631Z" fill="white"/>
<path d="M262.106 263.623H257.755V241.984H259.918V239.814H262.081V237.633H264.251V235.469H266.414V233.281H270.765V235.451H272.928V237.633H275.092V239.796H277.255V241.984H279.424V263.635H275.073V254.976H262.081L262.106 263.623ZM262.106 250.631H275.098V244.135H272.935V241.984H270.771V239.814H266.42V241.984H264.257V244.147H262.087L262.106 250.631Z" fill="white"/>
<path d="M303.245 237.633H305.414V241.984H301.063V239.814H298.9V237.633H290.234V239.796H288.083V244.147H290.247V246.31H301.075V248.48H303.238V250.643H305.408V259.302H303.238V261.472H301.075V263.635H288.083V261.472H285.92V259.302H283.732V254.951H288.083V257.114H290.247V259.277H298.912V257.114H301.075V252.763H298.912V250.6H288.083V248.436H285.92V246.267H283.732V237.633H285.902V235.469H288.083V233.281H301.075V235.451H303.238L303.245 237.633Z" fill="white"/>
<path d="M337.894 259.29H335.724V254.938H340.076V257.102H342.239V259.265H350.867V257.102H353.037V252.75H350.867V250.587H344.377V246.236H350.867V244.073H353.037V239.721H350.867V237.633H342.208V239.796H340.044V241.984H335.693V237.633H337.863V235.469H340.026V233.281H353.018V235.451H355.218V237.633H357.382V246.292H355.218V250.643H357.382V259.302H355.218V261.472H353.055V263.635H340.063V261.472H337.9L337.894 259.29Z" fill="white"/>
<path d="M361.708 263.623V233.281H379.033V235.451H381.196V237.633H383.359V259.284H381.196V261.453H379.033V263.616L361.708 263.623ZM366.059 237.639V259.29H376.882V257.127H379.051V239.802H376.882V237.633L366.059 237.639Z" fill="white"/>
<path d="M86.9282 292.401H84.0307C83.8594 291.567 83.5595 290.835 83.1311 290.204C82.7105 289.573 82.1965 289.044 81.5889 288.615C80.9892 288.179 80.3232 287.852 79.5911 287.634C78.8589 287.416 78.0956 287.307 77.3012 287.307C75.8525 287.307 74.54 287.673 73.3639 288.405C72.1956 289.137 71.2648 290.216 70.5716 291.641C69.8862 293.066 69.5435 294.815 69.5435 296.887C69.5435 298.959 69.8862 300.707 70.5716 302.133C71.2648 303.558 72.1956 304.637 73.3639 305.369C74.54 306.101 75.8525 306.467 77.3012 306.467C78.0956 306.467 78.8589 306.358 79.5911 306.14C80.3232 305.922 80.9892 305.599 81.5889 305.17C82.1965 304.734 82.7105 304.201 83.1311 303.57C83.5595 302.931 83.8594 302.199 84.0307 301.373H86.9282C86.7101 302.596 86.3129 303.69 85.7365 304.656C85.1601 305.622 84.4435 306.444 83.5868 307.121C82.73 307.791 81.7681 308.301 80.701 308.652C79.6417 309.002 78.5084 309.178 77.3012 309.178C75.2605 309.178 73.4457 308.679 71.8568 307.682C70.2679 306.685 69.0178 305.268 68.1065 303.43C67.1952 301.591 66.7395 299.41 66.7395 296.887C66.7395 294.363 67.1952 292.182 68.1065 290.344C69.0178 288.506 70.2679 287.089 71.8568 286.092C73.4457 285.095 75.2605 284.596 77.3012 284.596C78.5084 284.596 79.6417 284.771 80.701 285.122C81.7681 285.472 82.73 285.986 83.5868 286.664C84.4435 287.334 85.1601 288.152 85.7365 289.118C86.3129 290.076 86.7101 291.17 86.9282 292.401ZM111.799 296.887C111.799 299.41 111.343 301.591 110.432 303.43C109.521 305.268 108.271 306.685 106.682 307.682C105.093 308.679 103.278 309.178 101.237 309.178C99.1965 309.178 97.3817 308.679 95.7928 307.682C94.2039 306.685 92.9538 305.268 92.0425 303.43C91.1312 301.591 90.6756 299.41 90.6756 296.887C90.6756 294.363 91.1312 292.182 92.0425 290.344C92.9538 288.506 94.2039 287.089 95.7928 286.092C97.3817 285.095 99.1965 284.596 101.237 284.596C103.278 284.596 105.093 285.095 106.682 286.092C108.271 287.089 109.521 288.506 110.432 290.344C111.343 292.182 111.799 294.363 111.799 296.887ZM108.995 296.887C108.995 294.815 108.648 293.066 107.955 291.641C107.27 290.216 106.339 289.137 105.163 288.405C103.994 287.673 102.686 287.307 101.237 287.307C99.7885 287.307 98.4761 287.673 97.3 288.405C96.1316 289.137 95.2009 290.216 94.5077 291.641C93.8223 293.066 93.4795 294.815 93.4795 296.887C93.4795 298.959 93.8223 300.707 94.5077 302.133C95.2009 303.558 96.1316 304.637 97.3 305.369C98.4761 306.101 99.7885 306.467 101.237 306.467C102.686 306.467 103.994 306.101 105.163 305.369C106.339 304.637 107.27 303.558 107.955 302.133C108.648 300.707 108.995 298.959 108.995 296.887ZM116.671 308.851V284.923H119.568V306.28H130.691V308.851H116.671ZM135.177 308.851V284.923H149.618V287.494H138.074V295.578H148.87V298.149H138.074V306.28H149.804V308.851H135.177ZM174.094 292.401H171.196C171.025 291.567 170.725 290.835 170.297 290.204C169.876 289.573 169.362 289.044 168.755 288.615C168.155 288.179 167.489 287.852 166.757 287.634C166.025 287.416 165.261 287.307 164.467 287.307C163.018 287.307 161.706 287.673 160.53 288.405C159.361 289.137 158.431 290.216 157.737 291.641C157.052 293.066 156.709 294.815 156.709 296.887C156.709 298.959 157.052 300.707 157.737 302.133C158.431 303.558 159.361 304.637 160.53 305.369C161.706 306.101 163.018 306.467 164.467 306.467C165.261 306.467 166.025 306.358 166.757 306.14C167.489 305.922 168.155 305.599 168.755 305.17C169.362 304.734 169.876 304.201 170.297 303.57C170.725 302.931 171.025 302.199 171.196 301.373H174.094C173.876 302.596 173.479 303.69 172.902 304.656C172.326 305.622 171.609 306.444 170.752 307.121C169.896 307.791 168.934 308.301 167.867 308.652C166.807 309.002 165.674 309.178 164.467 309.178C162.426 309.178 160.611 308.679 159.023 307.682C157.434 306.685 156.183 305.268 155.272 303.43C154.361 301.591 153.905 299.41 153.905 296.887C153.905 294.363 154.361 292.182 155.272 290.344C156.183 288.506 157.434 287.089 159.023 286.092C160.611 285.095 162.426 284.596 164.467 284.596C165.674 284.596 166.807 284.771 167.867 285.122C168.934 285.472 169.896 285.986 170.752 286.664C171.609 287.334 172.326 288.152 172.902 289.118C173.479 290.076 173.876 291.17 174.094 292.401ZM177.467 287.494V284.923H195.413V287.494H187.889V308.851H184.991V287.494H177.467ZM202.782 284.923V308.851H199.885V284.923H202.782ZM209.573 284.923L216.676 305.065H216.957L224.06 284.923H227.098L218.312 308.851H215.321L206.535 284.923H209.573ZM249.889 296.887C249.889 299.41 249.433 301.591 248.522 303.43C247.611 305.268 246.361 306.685 244.772 307.682C243.183 308.679 241.368 309.178 239.327 309.178C237.287 309.178 235.472 308.679 233.883 307.682C232.294 306.685 231.044 305.268 230.133 303.43C229.221 301.591 228.766 299.41 228.766 296.887C228.766 294.363 229.221 292.182 230.133 290.344C231.044 288.506 232.294 287.089 233.883 286.092C235.472 285.095 237.287 284.596 239.327 284.596C241.368 284.596 243.183 285.095 244.772 286.092C246.361 287.089 247.611 288.506 248.522 290.344C249.433 292.182 249.889 294.363 249.889 296.887ZM247.085 296.887C247.085 294.815 246.738 293.066 246.045 291.641C245.36 290.216 244.429 289.137 243.253 288.405C242.085 287.673 240.776 287.307 239.327 287.307C237.879 287.307 236.566 287.673 235.39 288.405C234.222 289.137 233.291 290.216 232.598 291.641C231.912 293.066 231.57 294.815 231.57 296.887C231.57 298.959 231.912 300.707 232.598 302.133C233.291 303.558 234.222 304.637 235.39 305.369C236.566 306.101 237.879 306.467 239.327 306.467C240.776 306.467 242.085 306.101 243.253 305.369C244.429 304.637 245.36 303.558 246.045 302.133C246.738 300.707 247.085 298.959 247.085 296.887ZM283.268 292.401H280.37C280.199 291.567 279.899 290.835 279.471 290.204C279.05 289.573 278.536 289.044 277.929 288.615C277.329 288.179 276.663 287.852 275.931 287.634C275.199 287.416 274.435 287.307 273.641 287.307C272.192 287.307 270.88 287.673 269.704 288.405C268.535 289.137 267.605 290.216 266.911 291.641C266.226 293.066 265.883 294.815 265.883 296.887C265.883 298.959 266.226 300.707 266.911 302.133C267.605 303.558 268.535 304.637 269.704 305.369C270.88 306.101 272.192 306.467 273.641 306.467C274.435 306.467 275.199 306.358 275.931 306.14C276.663 305.922 277.329 305.599 277.929 305.17C278.536 304.734 279.05 304.201 279.471 303.57C279.899 302.931 280.199 302.199 280.37 301.373H283.268C283.05 302.596 282.653 303.69 282.076 304.656C281.5 305.622 280.783 306.444 279.927 307.121C279.07 307.791 278.108 308.301 277.041 308.652C275.981 309.002 274.848 309.178 273.641 309.178C271.6 309.178 269.785 308.679 268.197 307.682C266.608 306.685 265.358 305.268 264.446 303.43C263.535 301.591 263.079 299.41 263.079 296.887C263.079 294.363 263.535 292.182 264.446 290.344C265.358 288.506 266.608 287.089 268.197 286.092C269.785 285.095 271.6 284.596 273.641 284.596C274.848 284.596 275.981 284.771 277.041 285.122C278.108 285.472 279.07 285.986 279.927 286.664C280.783 287.334 281.5 288.152 282.076 289.118C282.653 290.076 283.05 291.17 283.268 292.401ZM287.95 308.851V284.923H296.035C297.904 284.923 299.438 285.243 300.638 285.881C301.837 286.512 302.725 287.381 303.302 288.487C303.878 289.593 304.166 290.851 304.166 292.26C304.166 293.67 303.878 294.92 303.302 296.011C302.725 297.101 301.841 297.958 300.65 298.581C299.458 299.196 297.935 299.504 296.082 299.504H289.539V296.887H295.988C297.265 296.887 298.294 296.7 299.072 296.326C299.859 295.952 300.428 295.423 300.778 294.737C301.136 294.044 301.316 293.218 301.316 292.26C301.316 291.302 301.136 290.465 300.778 289.748C300.42 289.032 299.847 288.479 299.061 288.089C298.274 287.692 297.234 287.494 295.941 287.494H290.847V308.851H287.95ZM299.213 298.102L305.101 308.851H301.736L295.941 298.102H299.213ZM308.994 308.851V284.923H323.435V287.494H311.892V295.578H322.687V298.149H311.892V306.28H323.622V308.851H308.994ZM329.639 308.851H326.601L335.387 284.923H338.378L347.164 308.851H344.126L336.976 288.709H336.789L329.639 308.851ZM330.76 299.504H343.004V302.074H330.76V299.504ZM346.787 287.494V284.923H364.732V287.494H357.208V308.851H354.311V287.494H346.787ZM372.101 284.923V308.851H369.204V284.923H372.101ZM378.892 284.923L385.996 305.065H386.276L393.38 284.923H396.417L387.631 308.851H384.64L375.855 284.923H378.892ZM419.208 296.887C419.208 299.41 418.753 301.591 417.841 303.43C416.93 305.268 415.68 306.685 414.091 307.682C412.502 308.679 410.687 309.178 408.647 309.178C406.606 309.178 404.791 308.679 403.202 307.682C401.613 306.685 400.363 305.268 399.452 303.43C398.541 301.591 398.085 299.41 398.085 296.887C398.085 294.363 398.541 292.182 399.452 290.344C400.363 288.506 401.613 287.089 403.202 286.092C404.791 285.095 406.606 284.596 408.647 284.596C410.687 284.596 412.502 285.095 414.091 286.092C415.68 287.089 416.93 288.506 417.841 290.344C418.753 292.182 419.208 294.363 419.208 296.887ZM416.404 296.887C416.404 294.815 416.058 293.066 415.364 291.641C414.679 290.216 413.748 289.137 412.572 288.405C411.404 287.673 410.095 287.307 408.647 287.307C407.198 287.307 405.885 287.673 404.709 288.405C403.541 289.137 402.61 290.216 401.917 291.641C401.232 293.066 400.889 294.815 400.889 296.887C400.889 298.959 401.232 300.707 401.917 302.133C402.61 303.558 403.541 304.637 404.709 305.369C405.885 306.101 407.198 306.467 408.647 306.467C410.095 306.467 411.404 306.101 412.572 305.369C413.748 304.637 414.679 303.558 415.364 302.133C416.058 300.707 416.404 298.959 416.404 296.887Z" fill="white"/>
<defs>
<radialGradient id="paint0_radial_271_415" cx="0" cy="0" r="1" gradientUnits="userSpaceOnUse" gradientTransform="translate(242.5 242.5) scale(242.5)">
<stop stop-color="#E49B94"/>
<stop offset="0.32" stop-color="#E59D96"/>
<stop offset="0.5" stop-color="#E7A59E"/>
<stop offset="0.64" stop-color="#EAB2AC"/>
<stop offset="0.77" stop-color="#EFC4C0"/>
<stop offset="0.88" stop-color="#F5DCD9"/>
<stop offset="0.98" stop-color="#FDF8F8"/>
<stop offset="1" stop-color="white"/>
</radialGradient>
</defs>
</svg>
