<svg width="203" height="203" viewBox="0 0 203 203" fill="none" xmlns="http://www.w3.org/2000/svg">
<path d="M161.767 19.7586L140.937 63.0184C140.87 63.1611 140.848 63.3205 140.873 63.4759C140.898 63.6312 140.969 63.7755 141.076 63.8904C141.184 64.0054 141.323 64.0856 141.476 64.1209C141.629 64.1562 141.79 64.1451 141.937 64.0887L186.247 45.6087C186.419 45.5313 186.613 45.5178 186.794 45.5711C186.975 45.6244 187.131 45.7405 187.233 45.8987C187.336 46.057 187.379 46.2469 187.354 46.4339C187.328 46.6209 187.238 46.7927 187.097 46.9183L152.097 79.7386C151.983 79.8505 151.906 79.9939 151.874 80.1502C151.842 80.3065 151.858 80.4688 151.919 80.616C151.981 80.7633 152.085 80.8886 152.218 80.9764C152.351 81.0642 152.507 81.1104 152.667 81.1087L200.667 79.8787C200.849 79.8804 201.026 79.9442 201.167 80.0599C201.308 80.1756 201.405 80.3358 201.442 80.5145C201.48 80.6931 201.455 80.8792 201.372 81.0418C201.289 81.2044 201.153 81.3339 200.986 81.4085L156.447 99.3484C156.296 99.4048 156.166 99.5057 156.074 99.638C155.982 99.7702 155.933 99.9277 155.933 100.089C155.933 100.25 155.982 100.407 156.074 100.539C156.166 100.671 156.296 100.772 156.447 100.828L201.646 117.018C201.826 117.078 201.978 117.199 202.075 117.361C202.173 117.523 202.209 117.714 202.178 117.9C202.146 118.086 202.049 118.255 201.904 118.376C201.759 118.497 201.576 118.561 201.387 118.558L153.387 119.199C153.226 119.199 153.068 119.25 152.937 119.342C152.805 119.435 152.704 119.565 152.649 119.716C152.593 119.867 152.586 120.032 152.626 120.188C152.667 120.344 152.755 120.484 152.877 120.589L189.167 152.018C189.308 152.139 189.401 152.306 189.432 152.489C189.462 152.672 189.427 152.86 189.333 153.019C189.239 153.179 189.091 153.301 188.916 153.363C188.741 153.425 188.551 153.423 188.377 153.359L143.377 136.618C143.226 136.554 143.058 136.538 142.897 136.574C142.736 136.61 142.591 136.694 142.481 136.817C142.371 136.939 142.301 137.093 142.283 137.256C142.264 137.42 142.297 137.584 142.377 137.728L164.867 180.148C164.999 180.311 165.062 180.521 165.04 180.73C165.018 180.939 164.915 181.131 164.752 181.263C164.589 181.396 164.38 181.458 164.17 181.437C163.961 181.415 163.769 181.311 163.637 181.148L127.727 149.279C127.606 149.171 127.456 149.103 127.296 149.083C127.136 149.064 126.975 149.093 126.832 149.168C126.689 149.243 126.573 149.36 126.499 149.503C126.425 149.646 126.396 149.809 126.417 149.969L132.067 197.638C132.093 197.824 132.051 198.013 131.951 198.171C131.85 198.329 131.696 198.446 131.517 198.502C131.338 198.557 131.145 198.547 130.973 198.473C130.8 198.399 130.66 198.266 130.577 198.098L108.577 155.409C108.503 155.265 108.388 155.148 108.246 155.072C108.104 154.996 107.943 154.965 107.783 154.984C107.623 155.002 107.472 155.069 107.352 155.176C107.231 155.282 107.146 155.422 107.107 155.578L95.1567 202.078C95.1048 202.254 94.994 202.407 94.8433 202.511C94.6925 202.614 94.5107 202.663 94.3281 202.649C94.1456 202.635 93.9735 202.559 93.8403 202.433C93.7072 202.308 93.6211 202.14 93.5967 201.958L88.5269 154.219C88.511 154.058 88.4465 153.907 88.3423 153.784C88.2381 153.662 88.0988 153.574 87.9434 153.533C87.7879 153.491 87.6235 153.498 87.4722 153.553C87.3209 153.608 87.1899 153.708 87.0967 153.839L59.1567 192.839C59.0506 192.994 58.8923 193.107 58.7104 193.156C58.5286 193.205 58.3352 193.188 58.165 193.107C57.9949 193.026 57.8589 192.887 57.7822 192.715C57.7055 192.543 57.6929 192.349 57.7466 192.168L70.2666 145.828C70.3102 145.673 70.3055 145.508 70.2524 145.355C70.1994 145.203 70.1005 145.07 69.9697 144.975C69.839 144.881 69.6825 144.828 69.521 144.825C69.3595 144.822 69.2011 144.868 69.0669 144.958L28.9067 171.259C28.7517 171.361 28.5655 171.406 28.3809 171.385C28.1962 171.363 28.0252 171.278 27.8975 171.143C27.7697 171.008 27.6932 170.832 27.6821 170.647C27.6711 170.461 27.7261 170.278 27.8369 170.129L56.2568 131.438C56.3527 131.309 56.4065 131.153 56.4111 130.992C56.4158 130.831 56.3709 130.672 56.2827 130.537C56.1945 130.402 56.0674 130.297 55.918 130.237C55.7685 130.176 55.604 130.163 55.4468 130.199L8.44678 140.199C8.26523 140.238 8.07566 140.213 7.91113 140.126C7.74661 140.04 7.61782 139.898 7.54736 139.726C7.47691 139.554 7.46926 139.363 7.52588 139.186C7.5825 139.009 7.69976 138.858 7.85693 138.759L48.3369 112.938C48.4734 112.853 48.5803 112.728 48.6436 112.579C48.7068 112.431 48.7231 112.267 48.6904 112.109C48.6578 111.951 48.5778 111.808 48.4609 111.697C48.3441 111.586 48.1959 111.513 48.0366 111.489L0.636719 103.868C0.457263 103.833 0.295819 103.736 0.179688 103.595C0.0635558 103.454 0 103.276 0 103.094C0 102.911 0.0635558 102.733 0.179688 102.592C0.295819 102.451 0.457263 102.354 0.636719 102.319L47.6968 92.8587C47.8553 92.8289 48.0007 92.751 48.1138 92.636C48.2269 92.5211 48.3024 92.3746 48.3296 92.2156C48.3568 92.0567 48.3345 91.8929 48.2661 91.7469C48.1977 91.6008 48.0863 91.4791 47.9468 91.3982L6.49658 67.1785C6.33773 67.0849 6.21666 66.9385 6.1543 66.7649C6.09194 66.5914 6.09235 66.4017 6.15527 66.2283C6.21819 66.055 6.33987 65.9093 6.49902 65.8162C6.65818 65.7231 6.84493 65.6885 7.02686 65.7186L54.3369 73.9085C54.4962 73.9373 54.6601 73.9165 54.8071 73.8489C54.9542 73.7813 55.0769 73.6702 55.1587 73.5306C55.2405 73.3909 55.2775 73.2295 55.2646 73.0682C55.2518 72.9069 55.1899 72.7536 55.0869 72.6287L25.1865 35.0687C25.0806 34.925 25.0263 34.7495 25.0327 34.5711C25.0391 34.3927 25.1057 34.2219 25.2217 34.0862C25.3376 33.9506 25.4962 33.8581 25.6714 33.824C25.8466 33.7899 26.0281 33.8159 26.1865 33.8983L67.3369 58.6185C67.4741 58.7037 67.6341 58.7451 67.7954 58.7366C67.9567 58.7282 68.1113 58.6703 68.2388 58.5711C68.3663 58.4719 68.4604 58.3362 68.5083 58.1819C68.5562 58.0277 68.5557 57.8622 68.5068 57.7083L54.1865 11.8787C54.1377 11.7019 54.1512 11.5136 54.2246 11.3455C54.298 11.1774 54.427 11.0393 54.5898 10.9549C54.7527 10.8705 54.9395 10.8446 55.1191 10.8816C55.2988 10.9187 55.4604 11.0166 55.5767 11.1585L85.0166 49.0784C85.115 49.2041 85.2492 49.2971 85.4014 49.345C85.5535 49.393 85.7165 49.3935 85.8691 49.347C86.0218 49.3004 86.1568 49.209 86.2563 49.0843C86.3559 48.9596 86.4153 48.8074 86.4268 48.6483L89.6367 0.748348C89.6466 0.561186 89.7228 0.383584 89.8516 0.247371C89.9803 0.111158 90.153 0.0251289 90.3394 0.0046953C90.5257 -0.0157383 90.7134 0.0309714 90.8687 0.136043C91.0239 0.241114 91.1363 0.397858 91.1865 0.578426L104.947 46.5784C104.993 46.7312 105.084 46.8663 105.208 46.9661C105.333 47.0659 105.485 47.1256 105.644 47.1375C105.803 47.1494 105.962 47.1132 106.1 47.033C106.238 46.9528 106.348 46.8324 106.417 46.6883L126.717 3.17852C126.796 3.01264 126.931 2.87995 127.099 2.80304C127.266 2.72612 127.455 2.70972 127.632 2.75714C127.81 2.80455 127.966 2.91237 128.073 3.06231C128.179 3.21226 128.23 3.3949 128.217 3.57843L124.427 51.4383C124.413 51.5989 124.45 51.7597 124.53 51.8992C124.611 52.0387 124.732 52.1505 124.878 52.2191C125.024 52.2876 125.187 52.3099 125.346 52.283C125.505 52.2561 125.651 52.1814 125.767 52.0687L160.407 18.8284C160.53 18.6481 160.72 18.524 160.935 18.4837C161.149 18.4434 161.371 18.4903 161.552 18.6136C161.732 18.7369 161.856 18.9267 161.896 19.1414C161.937 19.3561 161.89 19.5783 161.767 19.7586Z" fill="black"/>
</svg>
