<svg width="142" height="141" viewBox="0 0 142 141" fill="none" xmlns="http://www.w3.org/2000/svg">
<path d="M70.4998 31C79.0603 31 86 24.2845 86 16.0002C86 7.71586 79.0603 1 70.4998 1C61.9394 1 55 7.71586 55 16.0002C55 24.2845 61.9394 31 70.4998 31Z" stroke="black" stroke-width="0.94" stroke-miterlimit="10"/>
<path d="M70.4998 140C79.0603 140 86 133.06 86 124.5C86 115.94 79.0603 109 70.4998 109C61.9394 109 55 115.94 55 124.5C55 133.06 61.9394 140 70.4998 140Z" stroke="black" stroke-width="0.94" stroke-miterlimit="10"/>
<path d="M109.5 44C116.404 44 122 38.6275 122 32.0002C122 25.3729 116.404 20 109.5 20C102.596 20 97 25.3729 97 32.0002C97 38.6275 102.596 44 109.5 44Z" stroke="black" stroke-width="0.94" stroke-miterlimit="10"/>
<path d="M32.5 121C39.4036 121 45 115.627 45 109C45 102.373 39.4036 97 32.5 97C25.5964 97 20 102.373 20 109C20 115.627 25.5964 121 32.5 121Z" stroke="black" stroke-width="0.94" stroke-miterlimit="10"/>
<path d="M109.5 121C116.404 121 122 115.627 122 109C122 102.373 116.404 97 109.5 97C102.596 97 97 102.373 97 109C97 115.627 102.596 121 109.5 121Z" stroke="black" stroke-width="0.94" stroke-miterlimit="10"/>
<path d="M32.5 44C39.4036 44 45 38.6275 45 32.0002C45 25.3729 39.4036 20 32.5 20C25.5964 20 20 25.3729 20 32.0002C20 38.6275 25.5964 44 32.5 44Z" stroke="black" stroke-width="0.94" stroke-miterlimit="10"/>
<path d="M125.5 86C134.06 86 141 79.0604 141 70.5C141 61.9396 134.06 55 125.5 55C116.939 55 110 61.9396 110 70.5C110 79.0604 116.939 86 125.5 86Z" stroke="black" stroke-width="0.94" stroke-miterlimit="10"/>
<path d="M16.5 86C25.0604 86 32 79.0604 32 70.5C32 61.9396 25.0604 55 16.5 55C7.93964 55 1 61.9396 1 70.5C1 79.0604 7.93964 86 16.5 86Z" stroke="black" stroke-width="0.94" stroke-miterlimit="10"/>
<path d="M70.4998 93C82.9262 93 93 82.9265 93 70.5C93 58.0735 82.9262 48 70.4998 48C58.0734 48 48 58.0735 48 70.5C48 82.9265 58.0734 93 70.4998 93Z" stroke="black" stroke-width="0.94" stroke-miterlimit="10"/>
</svg>
