<svg width="144" height="146" viewBox="0 0 144 146" fill="none" xmlns="http://www.w3.org/2000/svg">
<path d="M18 90C27.3889 90 35 82.3889 35 73C35 63.6111 27.3889 56 18 56C8.61113 56 1 63.6111 1 73C1 82.3889 8.61113 90 18 90Z" stroke="black" stroke-width="0.94" stroke-miterlimit="10"/>
<path d="M126 90C135.388 90 143 82.3889 143 73C143 63.6111 135.388 56 126 56C116.611 56 109 63.6111 109 73C109 82.3889 116.611 90 126 90Z" stroke="black" stroke-width="0.94" stroke-miterlimit="10"/>
<path d="M33.4998 128C42.6124 128 50 120.613 50 111.5C50 102.388 42.6124 95 33.4998 95C24.3872 95 17 102.388 17 111.5C17 120.613 24.3872 128 33.4998 128Z" stroke="black" stroke-width="0.94" stroke-miterlimit="10"/>
<path d="M110.5 52C119.613 52 127 44.3888 127 34.9998C127 25.6108 119.613 18 110.5 18C101.387 18 94 25.6108 94 34.9998C94 44.3888 101.387 52 110.5 52Z" stroke="black" stroke-width="0.94" stroke-miterlimit="10"/>
<path d="M73 35C82.3889 35 90 27.3889 90 18C90 8.61113 82.3889 1 73 1C63.6111 1 56 8.61113 56 18C56 27.3889 63.6111 35 73 35Z" stroke="black" stroke-width="0.94" stroke-miterlimit="10"/>
<path d="M73 145C82.3889 145 90 137.613 90 128.5C90 119.387 82.3889 112 73 112C63.6111 112 56 119.387 56 128.5C56 137.613 63.6111 145 73 145Z" stroke="black" stroke-width="0.94" stroke-miterlimit="10"/>
<path d="M110.5 128C119.613 128 127 120.613 127 111.5C127 102.388 119.613 95 110.5 95C101.387 95 94 102.388 94 111.5C94 120.613 101.387 128 110.5 128Z" stroke="black" stroke-width="0.94" stroke-miterlimit="10"/>
<path d="M33.4998 52C42.6124 52 50 44.3888 50 34.9998C50 25.6108 42.6124 18 33.4998 18C24.3872 18 17 25.6108 17 34.9998C17 44.3888 24.3872 52 33.4998 52Z" stroke="black" stroke-width="0.94" stroke-miterlimit="10"/>
</svg>
