<svg width="130" height="77" viewBox="0 0 130 77" fill="none" xmlns="http://www.w3.org/2000/svg">
<rect width="130" height="77" fill="white"/>
<path d="M9.59823 51.2943H6V49.5064H15.0002V51.2878H11.3997V61.9824H9.59823V51.2943Z" fill="black"/>
<path d="M18.5984 61.9889H16.7992V53.078H17.6989V52.1851H18.5873V51.2943H19.4891V50.4037H20.3887V49.5064H22.1878V50.3971H23.0874V51.2878H23.9892V52.1784H24.8776V53.0713H25.7928V61.9824H23.9936V58.4175H18.5918L18.5984 61.9889ZM18.5984 56.6406H24.0003V53.9686H23.0985V53.078H22.1989V52.1851H20.3998V53.078H19.5002V53.9686H18.5984V56.6406Z" fill="black"/>
<path d="M27.5986 61.9889V49.5064H29.4V60.1989H36.5988V61.9824L27.5986 61.9889Z" fill="black"/>
<path d="M40.1993 61.9889H38.4001V53.078H39.2997V52.1851H40.1882V51.2943H41.0877V50.4037H42.0073V49.5064H43.8065V50.3971H44.706V51.2878H45.6057V52.1784H46.5073V53.0713H47.407V61.9824H45.6057V58.4175H40.206L40.1993 61.9889ZM40.1993 56.6406H45.5989V53.9686H44.6994V53.078H43.7998V52.1851H42.0073V53.078H41.1055V53.9686H40.206L40.1993 56.6406Z" fill="black"/>
<path d="M51.9004 60.2054H55.5009V59.3258H56.4004V58.4351H58.1996V60.2165H57.3111V61.1071H56.4116V62H51.0119V61.1071H50.1101V60.2165H49.2106V51.3054H50.1101V50.4147H51.0119V49.5064H56.4116V50.3971H57.3111V51.2878H58.1996V53.0713H56.4004V52.1784H55.5009V51.2878H51.9004V52.1784H51.0009V59.3082H51.9004V60.2054Z" fill="black"/>
<path d="M61.8001 56.6406V61.9889H59.9988V49.5064H61.7979V54.8527H67.1976V49.5064H68.9989V61.9824H67.1976V56.634L61.8001 56.6406Z" fill="black"/>
<path d="M72.5995 61.9889H70.8003V53.078H71.6999V52.1851H72.5884V51.2943H73.4902V50.4037H74.3897V49.5064H76.1889V50.3971H77.1018V51.2878H78.0036V52.1784H78.9031V53.0713H79.7916V61.9824H77.9924V58.4175H72.5906L72.5995 61.9889ZM72.5995 56.6406H78.0013V53.9686H77.1018V53.078H76.2022V52.1851H74.4031V53.078H73.5034V53.9686H72.6017L72.5995 56.6406Z" fill="black"/>
<path d="M89.7003 51.2943H90.5998V53.078H88.8006V52.1851H87.9011V51.2943H84.3006V52.1851H83.401V53.9686H84.3006V54.8592H88.8006V55.7499H89.7003V56.6296H90.5998V60.1945H89.7003V61.0851H88.8006V61.978H83.401V61.0851H82.4992V60.1945H81.5996V58.4131H83.401V59.3038H84.3006V60.1834H87.9011V59.3038H88.8006V57.5225H87.9011V56.6296H83.401V55.7499H82.4992V54.8592H81.5996V51.2943H82.4992V50.4037H83.401V49.5064H88.8006V50.3971H89.7003V51.2943Z" fill="black"/>
<path d="M104.1 60.2054H103.2V58.4241H105V59.3148H105.901V60.1945H109.5V59.3148H110.401V57.5335H109.5V56.6406H106.801V54.8592H109.5V53.9686H110.401V52.1851H109.5V51.2943H105.901V52.1851H105V53.078H103.2V51.2943H104.1V50.4037H105V49.5064H110.401V50.3971H111.308V51.2878H112.196V54.8527H111.308V56.634H112.196V60.1989H111.308V61.0895H110.408V61.9824H105V61.0895H104.1V60.2054Z" fill="black"/>
<path d="M114 61.9889V49.5064H121.201V50.3971H122.1V51.2878H123V60.1989H122.1V61.0895H121.201V61.9824L114 61.9889ZM115.801 51.2943V60.2054H120.301V59.3258H121.201V52.196H120.301V51.3054L115.801 51.2943Z" fill="black"/>
<path d="M47.1959 34.7719L45.359 33.879" stroke="black" stroke-width="1.25" stroke-miterlimit="10" stroke-linecap="round"/>
<path d="M47.1959 34.7719L49.9679 33.4326" stroke="black" stroke-width="1.25" stroke-miterlimit="10" stroke-linecap="round"/>
<path d="M66.9844 35.8957L68.819 36.7885L76.1822 33.2193" stroke="black" stroke-width="1.25" stroke-miterlimit="10" stroke-linecap="round"/>
<path d="M47.1959 34.7719L45.359 33.879" stroke="black" stroke-width="1.25" stroke-miterlimit="10" stroke-linecap="round"/>
<path d="M47.1959 34.7719L49.9679 33.4326" stroke="black" stroke-width="1.25" stroke-miterlimit="10" stroke-linecap="round"/>
<path d="M66.9844 35.8957L68.819 36.7885L76.1822 33.2193" stroke="black" stroke-width="1.25" stroke-miterlimit="10" stroke-linecap="round"/>
<path d="M45.359 21.4404V33.879" stroke="black" stroke-width="1.25" stroke-miterlimit="10" stroke-linecap="round"/>
<path d="M52.2624 13L41.2299 18.3726" stroke="black" stroke-width="1.25" stroke-miterlimit="10" stroke-linecap="round"/>
<path d="M54.0972 13.9105L52.2624 13" stroke="black" stroke-width="1.25" stroke-miterlimit="10" stroke-linecap="round"/>
<path d="M41.2299 18.3727V21.656" stroke="black" stroke-width="1.25" stroke-miterlimit="10" stroke-linecap="round"/>
<path d="M43.0646 22.5467L41.2299 21.6559" stroke="black" stroke-width="1.25" stroke-miterlimit="10" stroke-linecap="round"/>
<path d="M43.0646 19.2633L41.2299 18.3727" stroke="black" stroke-width="1.25" stroke-miterlimit="10" stroke-linecap="round"/>
<path d="M43.0646 22.5467L47.1959 20.5498" stroke="black" stroke-width="1.25" stroke-miterlimit="10" stroke-linecap="round"/>
<path d="M47.1959 20.5498V34.7719" stroke="black" stroke-width="1.25" stroke-miterlimit="10" stroke-linecap="round"/>
<path d="M49.9679 33.4326V19.1929" stroke="black" stroke-width="1.25" stroke-miterlimit="10" stroke-linecap="round"/>
<path d="M49.9679 19.1929L54.0972 17.1939" stroke="black" stroke-width="1.25" stroke-miterlimit="10" stroke-linecap="round"/>
<path d="M54.0972 17.1939V13.9105" stroke="black" stroke-width="1.25" stroke-miterlimit="10" stroke-linecap="round"/>
<path d="M62.3776 30.3824L55.9341 27.242" stroke="black" stroke-width="1.25" stroke-miterlimit="10" stroke-linecap="round"/>
<path d="M54.0972 28.1326L55.9341 27.242" stroke="black" stroke-width="1.25" stroke-miterlimit="10" stroke-linecap="round"/>
<path d="M62.3776 23.2614L60.0832 22.1377" stroke="black" stroke-width="1.25" stroke-miterlimit="10" stroke-linecap="round"/>
<path d="M60.0832 22.1377L58.2462 23.0304" stroke="black" stroke-width="1.25" stroke-miterlimit="10" stroke-linecap="round"/>
<path d="M66.9844 18.3726L55.9341 13" stroke="black" stroke-width="1.25" stroke-miterlimit="10" stroke-linecap="round"/>
<path d="M54.0972 13.9105L55.9341 13" stroke="black" stroke-width="1.25" stroke-miterlimit="10" stroke-linecap="round"/>
<path d="M58.2462 26.3139V23.0305" stroke="black" stroke-width="1.25" stroke-miterlimit="10" stroke-linecap="round"/>
<path d="M58.2462 26.3139L62.3776 28.3284" stroke="black" stroke-width="1.25" stroke-miterlimit="10" stroke-linecap="round"/>
<path d="M62.3776 28.3283V32.1658" stroke="black" stroke-width="1.25" stroke-miterlimit="10" stroke-linecap="round"/>
<path d="M62.3776 32.1659L54.0972 28.1326" stroke="black" stroke-width="1.25" stroke-miterlimit="10" stroke-linecap="round"/>
<path d="M54.0972 28.1326V31.4336" stroke="black" stroke-width="1.25" stroke-miterlimit="10" stroke-linecap="round"/>
<path d="M54.0972 31.4336L65.1297 36.7885" stroke="black" stroke-width="1.25" stroke-miterlimit="10" stroke-linecap="round"/>
<path d="M65.1297 19.2633L54.0972 13.9105" stroke="black" stroke-width="1.25" stroke-miterlimit="10" stroke-linecap="round"/>
<path d="M43.0646 22.5467V19.2655L54.0972 13.9105V17.1939" stroke="black" stroke-width="1.25" stroke-miterlimit="10" stroke-linecap="round"/>
<path d="M54.0972 17.1939L62.3776 21.2096" stroke="black" stroke-width="1.25" stroke-miterlimit="10" stroke-linecap="round"/>
<path d="M62.3776 21.2096V25.0449" stroke="black" stroke-width="1.25" stroke-miterlimit="10" stroke-linecap="round"/>
<path d="M62.3776 25.0449L58.2462 23.0305" stroke="black" stroke-width="1.25" stroke-miterlimit="10" stroke-linecap="round"/>
<path d="M66.9844 35.8957V18.3727" stroke="black" stroke-width="1.25" stroke-miterlimit="10" stroke-linecap="round"/>
<path d="M65.1297 19.2633L66.9844 18.3727" stroke="black" stroke-width="1.25" stroke-miterlimit="10" stroke-linecap="round"/>
<path d="M73.188 29.5973L75.2627 26.1336" stroke="black" stroke-width="1.25" stroke-miterlimit="10" stroke-linecap="round"/>
<path d="M71.5732 30.3824L73.188 29.5973" stroke="black" stroke-width="1.25" stroke-miterlimit="10" stroke-linecap="round"/>
<path d="M75.0427 30.4879L73.188 29.5973" stroke="black" stroke-width="1.25" stroke-miterlimit="10" stroke-linecap="round"/>
<path d="M75.2627 26.1336V19.7317" stroke="black" stroke-width="1.25" stroke-miterlimit="10" stroke-linecap="round"/>
<path d="M77.0996 27.0265L75.2627 26.1336" stroke="black" stroke-width="1.25" stroke-miterlimit="10" stroke-linecap="round"/>
<path d="M66.9844 18.3727V35.8957L65.1297 36.7885V19.2655" stroke="black" stroke-width="1.25" stroke-miterlimit="10" stroke-linecap="round"/>
<path d="M74.3453 14.8034L66.9844 18.3726" stroke="black" stroke-width="1.25" stroke-miterlimit="10" stroke-linecap="round"/>
<path d="M68.819 19.2633L66.9844 18.3727" stroke="black" stroke-width="1.25" stroke-miterlimit="10" stroke-linecap="round"/>
<path d="M76.1822 15.6963L74.3453 14.8034" stroke="black" stroke-width="1.25" stroke-miterlimit="10" stroke-linecap="round"/>
<path d="M76.1822 15.6963L68.819 19.2633" stroke="black" stroke-width="1.25" stroke-miterlimit="10" stroke-linecap="round"/>
<path d="M68.819 19.2633V36.7885" stroke="black" stroke-width="1.25" stroke-miterlimit="10" stroke-linecap="round"/>
<path d="M76.1822 33.2193L79.8538 27.0439" stroke="black" stroke-width="1.25" stroke-miterlimit="10" stroke-linecap="round"/>
<path d="M79.8538 27.0439V18.2824" stroke="black" stroke-width="1.25" stroke-miterlimit="10" stroke-linecap="round"/>
<path d="M79.8538 18.2824L76.1822 15.6963" stroke="black" stroke-width="1.25" stroke-miterlimit="10" stroke-linecap="round"/>
<path d="M71.5732 32.1659L75.0427 30.4879" stroke="black" stroke-width="1.25" stroke-miterlimit="10" stroke-linecap="round"/>
<path d="M71.5732 21.2096V32.1659" stroke="black" stroke-width="1.25" stroke-miterlimit="10" stroke-linecap="round"/>
<path d="M75.0427 19.5316L71.5732 21.2096" stroke="black" stroke-width="1.25" stroke-miterlimit="10" stroke-linecap="round"/>
<path d="M77.0996 20.9962L75.0427 19.5316" stroke="black" stroke-width="1.25" stroke-miterlimit="10" stroke-linecap="round"/>
<path d="M77.0996 27.0264V20.9962" stroke="black" stroke-width="1.25" stroke-miterlimit="10" stroke-linecap="round"/>
<path d="M75.0427 30.4879L77.0996 27.0265" stroke="black" stroke-width="1.25" stroke-miterlimit="10" stroke-linecap="round"/>
<path d="M45.359 21.4404V33.879" stroke="black" stroke-width="1.25" stroke-miterlimit="10" stroke-linecap="round"/>
<path d="M52.2624 13L41.2299 18.3726" stroke="black" stroke-width="1.25" stroke-miterlimit="10" stroke-linecap="round"/>
<path d="M54.0972 13.9105L52.2624 13" stroke="black" stroke-width="1.25" stroke-miterlimit="10" stroke-linecap="round"/>
<path d="M41.2299 18.3727V21.656" stroke="black" stroke-width="1.25" stroke-miterlimit="10" stroke-linecap="round"/>
<path d="M43.0646 22.5467L41.2299 21.6559" stroke="black" stroke-width="1.25" stroke-miterlimit="10" stroke-linecap="round"/>
<path d="M43.0646 19.2633L41.2299 18.3727" stroke="black" stroke-width="1.25" stroke-miterlimit="10" stroke-linecap="round"/>
<path d="M43.0646 22.5467L47.1959 20.5498" stroke="black" stroke-width="1.25" stroke-miterlimit="10" stroke-linecap="round"/>
<path d="M47.1959 20.5498V34.7719" stroke="black" stroke-width="1.25" stroke-miterlimit="10" stroke-linecap="round"/>
<path d="M49.9679 33.4326V19.1929" stroke="black" stroke-width="1.25" stroke-miterlimit="10" stroke-linecap="round"/>
<path d="M49.9679 19.1929L54.0972 17.1939" stroke="black" stroke-width="1.25" stroke-miterlimit="10" stroke-linecap="round"/>
<path d="M54.0972 17.1939V13.9105" stroke="black" stroke-width="1.25" stroke-miterlimit="10" stroke-linecap="round"/>
<path d="M62.3776 30.3824L55.9341 27.242" stroke="black" stroke-width="1.25" stroke-miterlimit="10" stroke-linecap="round"/>
<path d="M54.0972 28.1326L55.9341 27.242" stroke="black" stroke-width="1.25" stroke-miterlimit="10" stroke-linecap="round"/>
<path d="M62.3776 23.2614L60.0832 22.1377" stroke="black" stroke-width="1.25" stroke-miterlimit="10" stroke-linecap="round"/>
<path d="M60.0832 22.1377L58.2462 23.0304" stroke="black" stroke-width="1.25" stroke-miterlimit="10" stroke-linecap="round"/>
<path d="M66.9844 18.3726L55.9341 13" stroke="black" stroke-width="1.25" stroke-miterlimit="10" stroke-linecap="round"/>
<path d="M54.0972 13.9105L55.9341 13" stroke="black" stroke-width="1.25" stroke-miterlimit="10" stroke-linecap="round"/>
<path d="M58.2462 26.3139V23.0305" stroke="black" stroke-width="1.25" stroke-miterlimit="10" stroke-linecap="round"/>
<path d="M58.2462 26.3139L62.3776 28.3284" stroke="black" stroke-width="1.25" stroke-miterlimit="10" stroke-linecap="round"/>
<path d="M62.3776 28.3283V32.1658" stroke="black" stroke-width="1.25" stroke-miterlimit="10" stroke-linecap="round"/>
<path d="M62.3776 32.1659L54.0972 28.1326" stroke="black" stroke-width="1.25" stroke-miterlimit="10" stroke-linecap="round"/>
<path d="M54.0972 28.1326V31.4336" stroke="black" stroke-width="1.25" stroke-miterlimit="10" stroke-linecap="round"/>
<path d="M54.0972 31.4336L65.1297 36.7885" stroke="black" stroke-width="1.25" stroke-miterlimit="10" stroke-linecap="round"/>
<path d="M65.1297 19.2633L54.0972 13.9105" stroke="black" stroke-width="1.25" stroke-miterlimit="10" stroke-linecap="round"/>
<path d="M43.0646 22.5467V19.2655L54.0972 13.9105V17.1939" stroke="black" stroke-width="1.25" stroke-miterlimit="10" stroke-linecap="round"/>
<path d="M54.0972 17.1939L62.3776 21.2096" stroke="black" stroke-width="1.25" stroke-miterlimit="10" stroke-linecap="round"/>
<path d="M62.3776 21.2096V25.0449" stroke="black" stroke-width="1.25" stroke-miterlimit="10" stroke-linecap="round"/>
<path d="M62.3776 25.0449L58.2462 23.0305" stroke="black" stroke-width="1.25" stroke-miterlimit="10" stroke-linecap="round"/>
<path d="M66.9844 35.8957V18.3727" stroke="black" stroke-width="1.25" stroke-miterlimit="10" stroke-linecap="round"/>
<path d="M65.1297 19.2633L66.9844 18.3727" stroke="black" stroke-width="1.25" stroke-miterlimit="10" stroke-linecap="round"/>
<path d="M73.188 29.5973L75.2627 26.1336" stroke="black" stroke-width="1.25" stroke-miterlimit="10" stroke-linecap="round"/>
<path d="M71.5732 30.3824L73.188 29.5973" stroke="black" stroke-width="1.25" stroke-miterlimit="10" stroke-linecap="round"/>
<path d="M75.0427 30.4879L73.188 29.5973" stroke="black" stroke-width="1.25" stroke-miterlimit="10" stroke-linecap="round"/>
<path d="M75.2627 26.1336V19.7317" stroke="black" stroke-width="1.25" stroke-miterlimit="10" stroke-linecap="round"/>
<path d="M77.0996 27.0265L75.2627 26.1336" stroke="black" stroke-width="1.25" stroke-miterlimit="10" stroke-linecap="round"/>
<path d="M66.9844 18.3727V35.8957L65.1297 36.7885V19.2655" stroke="black" stroke-width="1.25" stroke-miterlimit="10" stroke-linecap="round"/>
<path d="M74.3453 14.8034L66.9844 18.3726" stroke="black" stroke-width="1.25" stroke-miterlimit="10" stroke-linecap="round"/>
<path d="M68.819 19.2633L66.9844 18.3727" stroke="black" stroke-width="1.25" stroke-miterlimit="10" stroke-linecap="round"/>
<path d="M76.1822 15.6963L74.3453 14.8034" stroke="black" stroke-width="1.25" stroke-miterlimit="10" stroke-linecap="round"/>
<path d="M76.1822 15.6963L68.819 19.2633" stroke="black" stroke-width="1.25" stroke-miterlimit="10" stroke-linecap="round"/>
<path d="M68.819 19.2633V36.7885" stroke="black" stroke-width="1.25" stroke-miterlimit="10" stroke-linecap="round"/>
<path d="M76.1822 33.2193L79.8538 27.0439" stroke="black" stroke-width="1.25" stroke-miterlimit="10" stroke-linecap="round"/>
<path d="M79.8538 27.0439V18.2824" stroke="black" stroke-width="1.25" stroke-miterlimit="10" stroke-linecap="round"/>
<path d="M79.8538 18.2824L76.1822 15.6963" stroke="black" stroke-width="1.25" stroke-miterlimit="10" stroke-linecap="round"/>
<path d="M71.5732 32.1659L75.0427 30.4879" stroke="black" stroke-width="1.25" stroke-miterlimit="10" stroke-linecap="round"/>
<path d="M71.5732 21.2096V32.1659" stroke="black" stroke-width="1.25" stroke-miterlimit="10" stroke-linecap="round"/>
<path d="M75.0427 19.5316L71.5732 21.2096" stroke="black" stroke-width="1.25" stroke-miterlimit="10" stroke-linecap="round"/>
<path d="M77.0996 20.9962L75.0427 19.5316" stroke="black" stroke-width="1.25" stroke-miterlimit="10" stroke-linecap="round"/>
<path d="M77.0996 27.0264V20.9962" stroke="black" stroke-width="1.25" stroke-miterlimit="10" stroke-linecap="round"/>
<path d="M75.0427 30.4879L77.0996 27.0265" stroke="black" stroke-width="1.25" stroke-miterlimit="10" stroke-linecap="round"/>
<path d="M9.59823 51.2943H6V49.5064H15.0002V51.2878H11.3997V61.9824H9.59823V51.2943Z" fill="black"/>
<path d="M18.5984 61.9889H16.7992V53.078H17.6989V52.1851H18.5873V51.2943H19.4891V50.4037H20.3887V49.5064H22.1878V50.3971H23.0874V51.2878H23.9892V52.1784H24.8776V53.0713H25.7928V61.9824H23.9936V58.4175H18.5918L18.5984 61.9889ZM18.5984 56.6406H24.0003V53.9686H23.0985V53.078H22.1989V52.1851H20.3998V53.078H19.5002V53.9686H18.5984V56.6406Z" fill="black"/>
<path d="M27.5986 61.9889V49.5064H29.4V60.1989H36.5988V61.9824L27.5986 61.9889Z" fill="black"/>
<path d="M40.1993 61.9889H38.4001V53.078H39.2997V52.1851H40.1882V51.2943H41.0877V50.4037H42.0073V49.5064H43.8065V50.3971H44.706V51.2878H45.6057V52.1784H46.5073V53.0713H47.407V61.9824H45.6057V58.4175H40.206L40.1993 61.9889ZM40.1993 56.6406H45.5989V53.9686H44.6994V53.078H43.7998V52.1851H42.0073V53.078H41.1055V53.9686H40.206L40.1993 56.6406Z" fill="black"/>
<path d="M51.9004 60.2054H55.5009V59.3258H56.4004V58.4351H58.1996V60.2165H57.3111V61.1071H56.4116V62H51.0119V61.1071H50.1101V60.2165H49.2106V51.3054H50.1101V50.4147H51.0119V49.5064H56.4116V50.3971H57.3111V51.2878H58.1996V53.0713H56.4004V52.1784H55.5009V51.2878H51.9004V52.1784H51.0009V59.3082H51.9004V60.2054Z" fill="black"/>
<path d="M61.8001 56.6406V61.9889H59.9988V49.5064H61.7979V54.8527H67.1976V49.5064H68.9989V61.9824H67.1976V56.634L61.8001 56.6406Z" fill="black"/>
<path d="M72.5995 61.9889H70.8003V53.078H71.6999V52.1851H72.5884V51.2943H73.4902V50.4037H74.3897V49.5064H76.1889V50.3971H77.1018V51.2878H78.0036V52.1784H78.9031V53.0713H79.7916V61.9824H77.9924V58.4175H72.5906L72.5995 61.9889ZM72.5995 56.6406H78.0013V53.9686H77.1018V53.078H76.2022V52.1851H74.4031V53.078H73.5034V53.9686H72.6017L72.5995 56.6406Z" fill="black"/>
<path d="M89.7003 51.2943H90.5998V53.078H88.8006V52.1851H87.9011V51.2943H84.3006V52.1851H83.401V53.9686H84.3006V54.8592H88.8006V55.7499H89.7003V56.6296H90.5998V60.1945H89.7003V61.0851H88.8006V61.978H83.401V61.0851H82.4992V60.1945H81.5996V58.4131H83.401V59.3038H84.3006V60.1834H87.9011V59.3038H88.8006V57.5225H87.9011V56.6296H83.401V55.7499H82.4992V54.8592H81.5996V51.2943H82.4992V50.4037H83.401V49.5064H88.8006V50.3971H89.7003V51.2943Z" fill="black"/>
<path d="M104.1 60.2054H103.2V58.4241H105V59.3148H105.901V60.1945H109.5V59.3148H110.401V57.5335H109.5V56.6406H106.801V54.8592H109.5V53.9686H110.401V52.1851H109.5V51.2943H105.901V52.1851H105V53.078H103.2V51.2943H104.1V50.4037H105V49.5064H110.401V50.3971H111.308V51.2878H112.196V54.8527H111.308V56.634H112.196V60.1989H111.308V61.0895H110.408V61.9824H105V61.0895H104.1V60.2054Z" fill="black"/>
<path d="M114 61.9889V49.5064H121.201V50.3971H122.1V51.2878H123V60.1989H122.1V61.0895H121.201V61.9824L114 61.9889ZM115.801 51.2943V60.2054H120.301V59.3258H121.201V52.196H120.301V51.3054L115.801 51.2943Z" fill="black"/>
</svg>
